<?xml version="1.0" encoding="UTF-8"?>
<svg width="32px" height="32px" viewBox="0 0 64 64" version="1.1" xmlns="http://www.w3.org/2000/svg" xmlns:xlink="http://www.w3.org/1999/xlink">
    <title>btn_back@3x</title>
    <g id="btn_back" stroke="none" stroke-width="1" fill="none" fill-rule="evenodd">
        <path d="M31.3847763,15.5857864 C32.1658249,16.366835 32.1658249,17.633165 31.3847763,18.4142136 L21.535238,28.2629083 C21.1446969,28.6534158 21.1446698,29.2865808 21.5351774,29.6771218 C21.7227116,29.8646721 21.9770709,29.9700404 22.2422957,29.9700453 L49.7989899,29.9705627 L49.7989899,29.9705627 C50.9035594,29.9705627 51.7989899,30.8659932 51.7989899,31.9705627 C51.7989899,33.0751322 50.9035594,33.9705627 49.7989899,33.9705627 L22.2422576,33.9700453 C21.6899729,33.970035 21.2422492,34.4177418 21.2422389,34.9700266 C21.2422339,35.2352475 21.3475895,35.4896073 21.5351279,35.677148 L31.3847763,45.5269119 L31.3847763,45.5269119 C32.1303227,46.2724583 32.1642112,47.4601722 31.4864417,48.2459156 L31.3847763,48.3553391 C30.6037277,49.1363876 29.3373978,49.1363876 28.5563492,48.3553391 L13.5857864,33.3847763 C12.8047379,32.6037277 12.8047379,31.3373978 13.5857864,30.5563492 L28.5563492,15.5857864 C29.3373978,14.8047379 30.6037277,14.8047379 31.3847763,15.5857864 Z" fill="#FFFFFF" fill-rule="nonzero"></path>
    </g>
</svg>