<?xml version="1.0" encoding="UTF-8"?>
<svg width="24px" height="24px" viewBox="0 0 24 24" version="1.1" xmlns="http://www.w3.org/2000/svg" xmlns:xlink="http://www.w3.org/1999/xlink">
    <title>切片</title>
    <g id="页面-1" stroke="none" stroke-width="1" fill="none" fill-rule="evenodd">
        <g id="官网英文" transform="translate(-1230.000000, -49.000000)" fill="#333231" fill-rule="nonzero">
            <g id="icon_language" transform="translate(1230.000000, 49.000000)">
                <g id="编组" transform="translate(1.000000, 1.000000)">
                    <path d="M11,0 C17.0751322,0 22,4.92486775 22,11 C22,17.0751322 17.0751322,22 11,22 C4.92486775,22 0,17.0751322 0,11 C0,4.92486775 4.92486775,0 11,0 Z M11,2 C6.02943725,2 2,6.02943725 2,11 C2,15.9705627 6.02943725,20 11,20 C15.9705627,20 20,15.9705627 20,11 C20,6.02943725 15.9705627,2 11,2 Z" id="蒙版"></path>
                    <path d="M11,0 C13.6036281,0 15.7142857,4.92486775 15.7142857,11 C15.7142857,17.0751322 13.6036281,22 11,22 C8.39637189,22 6.28571429,17.0751322 6.28571429,11 C6.28571429,4.92486775 8.39637189,0 11,0 Z M11,2 C9.96428546,2 8.28571429,5.91666607 8.28571429,11 C8.28571429,16.0833339 9.96428546,20 11,20 C12.0357145,20 13.7142857,16.0833339 13.7142857,11 C13.7142857,5.91666607 12.0357145,2 11,2 Z" id="椭圆形备份-2"></path>
                    <polygon id="路径-6" points="21.2142857 10 21.2142857 12 0.785714286 12 0.785714286 10"></polygon>
                </g>
            </g>
        </g>
    </g>
</svg>